<?xml version="1.0" encoding="utf-8"?>
<svg viewBox="0 0 20 20" width="20px" height="20px" fill="#6e8192" xmlns="http://www.w3.org/2000/svg">
  <path d="M 9.283 8.002 L 9.283 16 L 7.971 16 L 7.971 9.338 L 7.906 9.338 L 6.072 10.656 L 6.072 9.385 L 7.971 8.002 L 9.283 8.002 Z"/>
  <path d="M 0 6 C 0 4.895 0.895 4 2 4 L 14 4 C 15.105 4 16 4.895 16 6 L 16 18 C 16 19.105 15.105 20 14 20 L 2 20 C 0.895 20 0 19.105 0 18 L 0 6 Z M 15 6 C 15 5.448 14.552 5 14 5 L 2 5 C 1.448 5 1 5.448 1 6 L 1 18 C 1 18.552 1.448 19 2 19 L 14 19 C 14.552 19 15 18.552 15 18 L 15 6 Z"/>
</svg>